<?xml version="1.0" standalone="no"?>
<!DOCTYPE svg PUBLIC "-//W3C//DTD SVG 20010904//EN"
 "http://www.w3.org/TR/2001/REC-SVG-20010904/DTD/svg10.dtd">
<svg version="1.0" xmlns="http://www.w3.org/2000/svg"
 width="1000.000000pt" height="1000.000000pt" viewBox="0 0 1000.000000 1000.000000"
 preserveAspectRatio="xMidYMid meet">
<metadata>
Created by potrace 1.16, written by Peter Selinger 2001-2019
</metadata>
<g transform="translate(0.000000,1200.000000) scale(0.100000,-0.100000)"
fill="#000000" stroke="none">
<path d="M5905 9026 c-49 -29 -256 -149 -460 -266 -203 -118 -523 -302 -710
-410 -187 -108 -359 -207 -382 -220 l-43 -24 0 -981 0 -981 43 -24 c43 -24
267 -153 887 -512 195 -113 446 -258 557 -322 l203 -116 845 487 845 488 0
980 0 980 -841 485 c-462 267 -843 486 -847 487 -4 1 -47 -22 -97 -51z m374
-290 c688 -398 1083 -627 1163 -672 l87 -49 0 -890 0 -890 -312 -179 c-172
-99 -514 -297 -761 -439 -386 -224 -452 -259 -472 -251 -13 5 -359 203 -768
439 l-745 430 0 890 0 890 757 437 c416 241 763 437 771 438 8 0 134 -69 280
-154z"/>
<path d="M5807 7988 c-8 -18 -20 -51 -27 -73 -18 -56 -49 -131 -384 -908 -163
-379 -296 -701 -296 -717 0 -30 39 -70 68 -70 8 0 364 150 791 334 427 183
805 343 841 355 83 27 93 34 93 63 0 57 -124 324 -217 468 -79 122 -229 276
-347 357 -104 71 -267 155 -372 192 -114 40 -131 40 -150 -1z m290 -447 c147
-104 277 -245 371 -401 68 -115 88 -158 76 -169 -5 -5 -51 -27 -101 -49 l-93
-40 0 29 c0 16 -7 46 -15 65 -13 32 -13 39 1 66 43 82 -38 181 -125 153 -52
-16 -77 -60 -72 -127 1 -18 -4 -30 -18 -38 -29 -15 -51 -62 -51 -110 0 -44 11
-72 42 -106 23 -25 28 -22 -90 -73 l-92 -40 0 27 c0 15 -9 41 -20 59 -56 93
-194 81 -247 -21 -20 -39 -12 -110 16 -140 l21 -23 -191 -82 c-105 -45 -192
-81 -194 -79 -1 2 10 31 26 66 27 59 30 62 63 62 103 0 151 99 85 174 l-30 35
82 193 c45 106 83 194 84 195 0 1 23 -9 50 -22 59 -31 105 -32 162 -4 87 42
123 171 70 250 -29 43 -82 79 -118 79 -16 0 -29 1 -29 3 0 5 80 189 86 199 7
11 168 -72 251 -131z"/>
</g>
</svg>
